<svg width="70" height="72" viewBox="0 0 70 72" fill="none" xmlns="http://www.w3.org/2000/svg">
<path d="M26.9213 43.3872H19.6533C17.3916 43.3872 15.5518 45.2537 15.5518 47.5482V60.67C15.5518 64.9973 19.0215 68.5179 23.2871 68.5179C27.5526 68.5179 31.0229 64.9973 31.0229 60.67V47.5482C31.0229 45.2537 29.183 43.3872 26.9213 43.3872Z" fill="black"/>
<path d="M54.3692 43.3872H47.1007C44.839 43.3872 42.9991 45.2537 42.9991 47.5482V60.67C42.9991 64.9973 46.4695 68.5179 50.735 68.5179C55.0005 68.5179 58.4708 64.9973 58.4708 60.67V47.5482C58.4708 45.2537 56.631 43.3872 54.3692 43.3872Z" fill="black"/>
<path d="M46.9864 33.6537V41.7344C47.5604 41.7327 54.8241 41.6523 55.1895 41.8069V3.32878C55.1895 2.86934 54.8221 2.49658 54.3692 2.49658H53.0426C50.6719 2.49658 48.6548 4.13552 48.1373 6.48259L43.5033 27.4903C43.1908 28.906 43.4547 30.3488 44.2461 31.5532C44.9014 32.5501 45.8766 33.2913 46.9864 33.6537Z" fill="black"/>
<path d="M31.5382 2.53776C30.108 2.77398 29.0292 4.11926 29.0292 5.66664V13.7459C29.0292 14.4871 28.5427 15.1259 27.898 15.2321C27.4841 15.2993 27.0868 15.1887 26.7771 14.9216C26.4705 14.6572 26.2948 14.272 26.2948 13.8646V5.66664C26.2948 4.11818 25.216 2.77344 23.7858 2.53776C22.9046 2.39201 22.0117 2.64178 21.3387 3.22314C20.6653 3.80449 20.2792 4.65186 20.2792 5.54799V13.7459C20.2792 14.4871 19.7927 15.1259 19.148 15.2321C18.7336 15.2993 18.3368 15.1887 18.0271 14.9216C17.7205 14.6572 17.5448 14.272 17.5448 13.8646V5.66664C17.5448 4.11818 16.466 2.77344 15.0358 2.53776C14.1557 2.39201 13.2617 2.64178 12.5887 3.22314C11.9153 3.80449 11.5292 4.65186 11.5292 5.54799V19.2414C11.5292 23.5926 13.7722 27.668 17.3835 29.8769C18.512 30.5677 19.186 31.7379 19.186 33.0074V41.7707C19.6646 41.6895 26.9101 41.6894 27.3891 41.7708V33.0556C27.3891 31.7694 28.0866 30.5845 29.2546 29.8855C32.8263 27.7492 35.0448 23.8158 35.0448 19.6212V5.54799C35.0448 4.65185 34.6587 3.80448 33.9852 3.22314C33.3123 2.64233 32.4199 2.3931 31.5382 2.53776Z" fill="black"/>
</svg>
