<svg width="70" height="70" viewBox="0 0 70 70" fill="none" xmlns="http://www.w3.org/2000/svg">
<path d="M24.1139 14.8845C25.2465 14.8845 26.1647 13.9664 26.1647 12.8337C26.1647 11.7011 25.2465 10.783 24.1139 10.783C22.9813 10.783 22.0631 11.7011 22.0631 12.8337C22.0631 13.9664 22.9813 14.8845 24.1139 14.8845Z" fill="black"/>
<path d="M30.3127 31.1773L45.1331 17.6354L61.6815 31.6846L61.7813 0H8.35571L8.25317 32.6949L19.8702 25.1002L30.3127 31.1773ZM17.9616 12.8338C17.9616 9.4418 20.7219 6.68144 24.1139 6.68144C27.5059 6.68144 30.2663 9.4418 30.2663 12.8338C30.2663 16.2258 27.5059 18.9861 24.1139 18.9861C20.7219 18.9861 17.9616 16.2258 17.9616 12.8338Z" fill="black"/>
<path d="M61.6654 37.0504L45.2324 23.1003L30.855 36.2391L19.9953 29.9182L8.238 37.6055L8.21899 43.6996H61.6446L61.6654 37.0504Z" fill="black"/>
<path d="M61.7746 65.8985V48.2499H57.673V52.3379C55.7336 53.1869 53.6163 53.6318 51.4827 53.6318C49.3491 53.6318 47.2317 53.1871 45.2921 52.3378V48.2499H41.1905V52.3379C39.2509 53.1871 37.1337 53.632 35.0003 53.632C32.8667 53.632 30.7493 53.1871 28.8097 52.3378V48.2499H24.7081V52.3379C22.7683 53.1871 20.6511 53.632 18.5178 53.632C16.3841 53.632 14.2669 53.1871 12.3273 52.3378V48.2498H8.22571V65.8985H5.49133V70.0001H15.0616V65.8985H12.3273V56.7277C14.3145 57.3901 16.4104 57.7337 18.5178 57.7337C20.6251 57.7337 22.7209 57.3902 24.7081 56.7277V65.8985H21.9737V70.0001H31.544V65.8985H28.8097V56.7275C30.7969 57.3901 32.8929 57.7335 35.0003 57.7335C37.1075 57.7335 39.2034 57.3901 41.1905 56.7277V65.8985H38.4561V70.0001H48.0264V65.8985H45.2921V56.7275C47.2793 57.3901 49.3753 57.7334 51.4827 57.7334C53.5902 57.7334 55.6861 57.39 57.673 56.7275V65.8985H54.9387V70.0001H64.509V65.8985H61.7746Z" fill="black"/>
</svg>
