<svg width="70" height="70" viewBox="0 0 70 70" fill="none" xmlns="http://www.w3.org/2000/svg">
<g clip-path="url(#clip0_203_1578)">
<path d="M38.5692 29.8688V55.3901C37.4773 54.8033 36.2297 54.4702 34.9058 54.4702C30.6243 54.4702 27.1409 57.9536 27.1409 62.235C27.1409 66.5165 30.6243 69.9999 34.9058 69.9999C39.1873 69.9999 42.6707 66.5165 42.6707 62.235V43.2889L65.8976 41.2494V52.9903C64.8057 52.4035 63.5581 52.0705 62.2342 52.0705C57.9527 52.0705 54.4693 55.5538 54.4693 59.8354C54.4693 64.1169 57.9527 67.6001 62.2342 67.6001C66.5157 67.6001 69.9991 64.1168 69.9991 59.8354V27.1089L38.5692 29.8688Z" fill="black"/>
<path d="M34.1778 25.8977V0L8.86911 2.22232V21.7285C8.13098 21.4358 7.32668 21.2748 6.48547 21.2748C2.90966 21.2748 0.000488281 24.1839 0.000488281 27.7597C0.000488281 31.3355 2.90953 34.2447 6.48547 34.2447C10.0614 34.2447 12.9706 31.3355 12.9706 27.7597V13.8883L30.0763 12.3862V19.8663C29.3382 19.5736 28.5339 19.4126 27.6927 19.4126C24.1169 19.4126 21.2077 22.3217 21.2077 25.8975C21.2077 29.4733 24.1167 32.3825 27.6927 32.3825C31.2686 32.3825 34.1778 29.4735 34.1778 25.8977Z" fill="black"/>
<path d="M52.2334 8.65894H56.3349V12.7607H52.2334V8.65894Z" fill="black"/>
<path d="M52.2334 16.8623H56.3349V20.9641H52.2334V16.8623Z" fill="black"/>
<path d="M48.1316 12.7607H52.2331V16.8625H48.1316V12.7607Z" fill="black"/>
<path d="M56.335 12.7607H60.4364V16.8625H56.335V12.7607Z" fill="black"/>
<path d="M13.665 57.2434H17.7665V61.3452H13.665V57.2434Z" fill="black"/>
<path d="M13.665 49.0398H17.7665V53.1415H13.665V49.0398Z" fill="black"/>
<path d="M17.7668 53.1416H21.8683V57.2434H17.7668V53.1416Z" fill="black"/>
<path d="M9.56323 53.1416H13.6647V57.2434H9.56323V53.1416Z" fill="black"/>
</g>
<defs>
<clipPath id="clip0_203_1578">
<rect width="70" height="70" fill="white"/>
</clipPath>
</defs>
</svg>
