<svg width="70" height="70" viewBox="0 0 70 70" fill="none" xmlns="http://www.w3.org/2000/svg">
<g clip-path="url(#clip0_203_1617)">
<path d="M69.3084 56.0756C64.0758 48.7036 48.0288 25.9081 48.0288 25.9081C47.6447 25.361 47.0386 25.0072 46.3734 24.9395C45.7044 24.875 45.0445 25.0955 44.5559 25.5521L40.3509 29.4883L30.4837 11.175C30.0836 10.4359 29.3175 9.96989 28.4765 9.9586C27.6508 9.92144 26.8553 10.3916 26.4371 11.1197L0.307415 56.5742C-0.103993 57.291 -0.101706 58.1725 0.309702 58.888C0.725683 59.6025 1.49005 60.0434 2.31516 60.0434H67.6401C67.6559 60.0411 67.6718 60.0422 67.6848 60.0434C68.965 60.0434 70 59.0069 70 57.7284C70 57.0806 69.6549 56.5639 69.3084 56.0756ZM41.3231 34.9223L45.7771 30.7501L54.633 43.3047L47.1198 35.4786C46.9978 35.353 46.8304 35.2806 46.6539 35.2784C46.4826 35.2773 46.3128 35.3462 46.1887 35.4696L40.8301 40.8212C40.6444 41.0076 40.3641 41.0633 40.1201 40.9614C39.8761 40.8607 39.7177 40.6223 39.72 40.3588L39.7405 35.4922C40.3192 35.4922 40.8889 35.3262 41.3231 34.9223ZM28.3791 17.0328L34.1241 27.6919L29.8101 31.497C29.6767 31.6159 29.498 31.6735 29.3221 31.6576C29.1433 31.6418 28.9782 31.5525 28.8698 31.4123L26.1045 27.9032C25.9735 27.7372 25.7697 27.6444 25.5598 27.6559C25.347 27.6672 25.1528 27.7812 25.0422 27.96L20.8617 34.6262C20.7306 34.833 20.4951 34.9506 20.2511 34.9279C20.007 34.9055 19.7942 34.7471 19.7041 34.5199L19.1435 33.1001L28.3791 17.0328Z" fill="black"/>
</g>
<defs>
<clipPath id="clip0_203_1617">
<rect width="70" height="70" fill="white"/>
</clipPath>
</defs>
</svg>
