<svg width="70" height="70" viewBox="0 0 70 70" fill="none" xmlns="http://www.w3.org/2000/svg">
<path d="M68.9062 35C68.9062 35 66.0188 35.5469 60.6047 36.0938C55.1906 36.6406 47.2609 37.1875 37.1875 37.1875C37.1875 57.3344 35 68.9062 35 68.9062C35 68.9062 34.4531 66.0188 33.9062 60.6047C33.3594 55.1906 32.8125 47.2609 32.8125 37.1875C12.6656 37.1875 1.09375 35 1.09375 35C1.09375 35 3.98125 34.4531 9.39531 33.9062C14.8094 33.3594 22.7391 32.8125 32.8125 32.8125C32.8125 12.6656 35 1.09375 35 1.09375C35 1.09375 37.1875 12.6656 37.1875 32.8125C57.3344 32.8125 68.9062 35 68.9062 35Z" fill="#030303"/>
<path d="M37.1875 30.625C43.75 21.875 50.3125 19.6875 50.3125 19.6875C47.493 24.6897 43.7868 29.1372 39.375 32.8125" fill="#030303"/>
<path d="M30.625 32.8125C21.875 26.25 19.6875 19.6875 19.6875 19.6875C24.6897 22.507 29.1372 26.2132 32.8125 30.625" fill="#030303"/>
<path d="M32.8125 39.375C26.25 48.125 19.6875 50.3125 19.6875 50.3125C22.507 45.3103 26.2132 40.8628 30.625 37.1875" fill="#030303"/>
<path d="M39.375 37.1875C48.125 43.75 50.3125 50.3125 50.3125 50.3125C45.3103 47.493 40.8628 43.7868 37.1875 39.375" fill="#030303"/>
<path d="M35 40.4688C38.0203 40.4688 40.4688 38.0203 40.4688 35C40.4688 31.9797 38.0203 29.5312 35 29.5312C31.9797 29.5312 29.5312 31.9797 29.5312 35C29.5312 38.0203 31.9797 40.4688 35 40.4688Z" fill="#030303"/>
</svg>
